<svg xmlns="http://www.w3.org/2000/svg" width="1200" height="630" viewBox="0 0 1200 630">
  <defs>
    <linearGradient id="bg" x1="0%" y1="0%" x2="100%" y2="100%">
      <stop offset="0%" stop-color="#1c1210"/>
      <stop offset="100%" stop-color="#0c0a09"/>
    </linearGradient>
    <linearGradient id="accent" x1="0%" y1="0%" x2="100%" y2="0%">
      <stop offset="0%" stop-color="#f97316"/>
      <stop offset="100%" stop-color="#eab308"/>
    </linearGradient>
    <radialGradient id="glow1" cx="80%" cy="20%" r="50%">
      <stop offset="0%" stop-color="rgba(249,115,22,0.15)"/>
      <stop offset="100%" stop-color="transparent"/>
    </radialGradient>
    <radialGradient id="glow2" cx="20%" cy="80%" r="40%">
      <stop offset="0%" stop-color="rgba(234,179,8,0.1)"/>
      <stop offset="100%" stop-color="transparent"/>
    </radialGradient>
  </defs>

  <!-- Background -->
  <rect width="1200" height="630" fill="url(#bg)"/>
  <rect width="1200" height="630" fill="url(#glow1)"/>
  <rect width="1200" height="630" fill="url(#glow2)"/>

  <!-- Border -->
  <rect x="20" y="20" width="1160" height="590" rx="24" fill="none" stroke="#2e2420" stroke-width="2"/>

  <!-- BRTI eyebrow badge -->
  <rect x="80" y="80" width="340" height="40" rx="20" fill="#231b16" stroke="#2e2420" stroke-width="1"/>
  <circle cx="100" cy="100" r="4" fill="#f97316"/>
  <text x="114" y="106" fill="#fb923c" font-family="Inter, -apple-system, sans-serif" font-size="13" font-weight="700" letter-spacing="0.08em">SBTI BRAINROT PERSONALITY TEST</text>

  <!-- Main title -->
  <text x="80" y="200" fill="url(#accent)" font-family="Inter, -apple-system, sans-serif" font-size="72" font-weight="800" letter-spacing="-0.03em">MBTI is</text>
  <text x="400" y="200" fill="rgba(245,240,235,0.35)" font-family="Inter, -apple-system, sans-serif" font-size="72" font-weight="800" letter-spacing="-0.03em" text-decoration="line-through">dead</text>
  <text x="592" y="200" fill="url(#accent)" font-family="Inter, -apple-system, sans-serif" font-size="72" font-weight="800" letter-spacing="-0.03em">.</text>

  <text x="80" y="290" fill="#f5f0eb" font-family="Inter, -apple-system, sans-serif" font-size="72" font-weight="800" letter-spacing="-0.03em">BRTI has arrived.</text>

  <!-- Subtitle -->
  <text x="80" y="350" fill="#a89890" font-family="Inter, -apple-system, sans-serif" font-size="22" font-weight="400">Discover which iconic brainrot character matches your personality.</text>
  <text x="80" y="385" fill="#a89890" font-family="Inter, -apple-system, sans-serif" font-size="22" font-weight="400">16+ types. Two quiz versions. 100% free.</text>

  <!-- Type pills row -->
  <rect x="80" y="430" width="120" height="36" rx="18" fill="#231b16" stroke="#2e2420" stroke-width="1"/>
  <text x="140" y="453" fill="#fb923c" font-family="Inter, sans-serif" font-size="13" font-weight="700" text-anchor="middle">BOOM</text>

  <rect x="216" y="430" width="120" height="36" rx="18" fill="#231b16" stroke="#2e2420" stroke-width="1"/>
  <text x="276" y="453" fill="#fb923c" font-family="Inter, sans-serif" font-size="13" font-weight="700" text-anchor="middle">SIGMA</text>

  <rect x="352" y="430" width="120" height="36" rx="18" fill="#231b16" stroke="#2e2420" stroke-width="1"/>
  <text x="412" y="453" fill="#fb923c" font-family="Inter, sans-serif" font-size="13" font-weight="700" text-anchor="middle">SKIB</text>

  <rect x="488" y="430" width="120" height="36" rx="18" fill="#231b16" stroke="#2e2420" stroke-width="1"/>
  <text x="548" y="453" fill="#fb923c" font-family="Inter, sans-serif" font-size="13" font-weight="700" text-anchor="middle">TRAL</text>

  <rect x="624" y="430" width="120" height="36" rx="18" fill="#231b16" stroke="#2e2420" stroke-width="1"/>
  <text x="684" y="453" fill="#fb923c" font-family="Inter, sans-serif" font-size="13" font-weight="700" text-anchor="middle">BRRR</text>

  <rect x="760" y="430" width="120" height="36" rx="18" fill="#231b16" stroke="#2e2420" stroke-width="1"/>
  <text x="820" y="453" fill="#fb923c" font-family="Inter, sans-serif" font-size="13" font-weight="700" text-anchor="middle">MONKE</text>

  <!-- Brand icon (right side) -->
  <circle cx="1060" cy="330" r="115" fill="rgba(249,115,22,0.06)"/>
  <g transform="translate(944, 212) scale(3.5)" opacity="0.85">
    <path d="M32 8C20 8 12 16 12 26c0 4 1.5 7.5 4 10.5C18 39 19 42 19 46v2a2 2 0 002 2h22a2 2 0 002-2v-2c0-4 1-7 3-9.5 2.5-3 4-6.5 4-10.5C52 16 44 8 32 8z" stroke="#f97316" stroke-width="3" fill="none"/>
    <path d="M32 12v34" stroke="#f97316" stroke-width="2" stroke-dasharray="4 3" opacity="0.5"/>
    <path d="M18 22c4-1 7 1 8 4M16 30c5 0 8 2 9 5" stroke="#fb923c" stroke-width="2" stroke-linecap="round" fill="none"/>
    <path d="M46 22c-4-1-7 1-8 4M48 30c-5 0-8 2-9 5" stroke="#fb923c" stroke-width="2" stroke-linecap="round" fill="none"/>
    <path d="M24 50v6a3 3 0 006 0v-6" stroke="#f97316" stroke-width="2" fill="#f97316" opacity="0.7"/>
    <path d="M34 50v8a3 3 0 006 0v-8" stroke="#f97316" stroke-width="2" fill="#f97316" opacity="0.5"/>
    <rect x="10" y="25" width="8" height="2" rx="1" fill="#eab308" opacity="0.6"/>
    <rect x="46" y="31" width="10" height="2" rx="1" fill="#eab308" opacity="0.4"/>
    <circle cx="38" cy="18" r="2" fill="#eab308"/>
  </g>

  <!-- CTA badge -->
  <rect x="80" y="510" width="240" height="52" rx="14" fill="url(#accent)"/>
  <text x="200" y="542" fill="#fff" font-family="Inter, sans-serif" font-size="18" font-weight="700" text-anchor="middle">Take the Quiz</text>

  <!-- domain -->
  <text x="1140" y="580" fill="#a89890" font-family="Inter, sans-serif" font-size="16" font-weight="600" text-anchor="end">sbtibrainrot.com</text>
</svg>
